<mxfile host="65bd71144e">
    <diagram id="XVRLgaRRa0-e0b5sQCnj" name="checkmk">
        <mxGraphModel dx="1024" dy="518" grid="1" gridSize="10" guides="1" tooltips="1" connect="1" arrows="1" fold="1" page="1" pageScale="1" pageWidth="827" pageHeight="1169" math="0" shadow="0">
            <root>
                <mxCell id="0"/>
                <mxCell id="1" parent="0"/>
                <mxCell id="0.0" value="Best viewed with the &lt;a href=&quot;https://github.com/ariel-bentu/tam-drawio&quot;&gt;TAM plugin&lt;/a&gt;" style="text;html=1;shape=tamPluginMissing;" parent="1" vertex="1" connectable="0">
                    <mxGeometry x="200" y="510" width="200" height="25" as="geometry"/>
                </mxCell>
                <mxCell id="zCmpaBpcssPtYIkRfh-4-2" value="Server" style="shape=agent;offsetSize=8;strokeWidth=2;verticalAlign=top;" parent="1" vertex="1">
                    <mxGeometry x="100" y="350" width="260" height="130" as="geometry"/>
                </mxCell>
                <mxCell id="zCmpaBpcssPtYIkRfh-4-1" value="Konnektor&#10;Admin Tool" style="shape=agent;offsetSize=8;strokeWidth=2;" parent="1" vertex="1">
                    <mxGeometry x="110" y="390" width="100" height="60" as="geometry"/>
                </mxCell>
                <mxCell id="zCmpaBpcssPtYIkRfh-4-3" value="prometheus" style="shape=agent;offsetSize=8;strokeWidth=2;" parent="1" vertex="1">
                    <mxGeometry x="240" y="390" width="100" height="60" as="geometry"/>
                </mxCell>
                <mxCell id="zCmpaBpcssPtYIkRfh-4-4" value="" style="shape=useedge;endArrow=none;edgeStyle=none;useSignPosition=up;useSignDirection=none;exitX=1;exitY=0.5;exitDx=0;exitDy=0;entryX=0;entryY=0.5;entryDx=0;entryDy=0;" parent="1" source="zCmpaBpcssPtYIkRfh-4-1" target="zCmpaBpcssPtYIkRfh-4-3" edge="1">
                    <mxGeometry width="160" relative="1" as="geometry">
                        <mxPoint x="240" y="430" as="sourcePoint"/>
                        <mxPoint x="400" y="430" as="targetPoint"/>
                    </mxGeometry>
                </mxCell>
                <mxCell id="zCmpaBpcssPtYIkRfh-4-6" value="" style="shape=useedge;endArrow=none;edgeStyle=none;useSignPosition=up;useSignDirection=west;exitX=1;exitY=0.5;exitDx=0;exitDy=0;entryX=0;entryY=0.5;entryDx=0;entryDy=0;" parent="1" source="zCmpaBpcssPtYIkRfh-4-3" target="zCmpaBpcssPtYIkRfh-4-5" edge="1">
                    <mxGeometry width="160" relative="1" as="geometry">
                        <mxPoint x="380" y="420" as="sourcePoint"/>
                        <mxPoint x="540" y="420" as="targetPoint"/>
                    </mxGeometry>
                </mxCell>
                <mxCell id="zCmpaBpcssPtYIkRfh-4-7" value="9090" style="text;html=1;strokeColor=none;fillColor=none;align=center;verticalAlign=middle;whiteSpace=wrap;rounded=0;" parent="1" vertex="1">
                    <mxGeometry x="360" y="430" width="60" height="30" as="geometry"/>
                </mxCell>
                <mxCell id="zCmpaBpcssPtYIkRfh-4-5" value="checkmk" style="shape=agent;offsetSize=8;strokeWidth=2;verticalAlign=top;" parent="1" vertex="1">
                    <mxGeometry x="430" y="385" width="100" height="60" as="geometry"/>
                </mxCell>
                <mxCell id="zCmpaBpcssPtYIkRfh-4-8" value="Spezialagent" style="shape=agent;offsetSize=8;strokeWidth=2;" parent="1" vertex="1">
                    <mxGeometry x="440" y="415" width="80" height="25" as="geometry"/>
                </mxCell>
            </root>
        </mxGraphModel>
    </diagram>
    <diagram id="Fpsi-UkH_9leQJDjks8w" name="Hospital">
        <mxGraphModel dx="839" dy="380" grid="1" gridSize="10" guides="1" tooltips="1" connect="1" arrows="1" fold="1" page="1" pageScale="1" pageWidth="827" pageHeight="1169" math="0" shadow="0">
            <root>
                <mxCell id="0"/>
                <mxCell id="1" parent="0"/>
                <mxCell id="5xqcOFgxY0aVDQKXTTnq-1" value="Hospital" style="shape=ushape;dx=50;dy=310;strokeWidth=2;labelPosition=center;verticalLabelPosition=middle;align=center;verticalAlign=bottom;" parent="1" vertex="1">
                    <mxGeometry x="10" y="170" width="580" height="350" as="geometry"/>
                </mxCell>
                <mxCell id="0.1" value="Best viewed with the &lt;a href=&quot;https://github.com/ariel-bentu/tam-drawio&quot;&gt;TAM plugin&lt;/a&gt;" style="text;html=1;shape=tamPluginMissing;" parent="1" vertex="1" connectable="0">
                    <mxGeometry x="275" y="650" width="200" height="25" as="geometry"/>
                </mxCell>
                <mxCell id="5xqcOFgxY0aVDQKXTTnq-2" value="Telematik&#10;infrastruktur" style="shape=agent;offsetSize=8;strokeWidth=2;" parent="1" vertex="1">
                    <mxGeometry x="650" y="170" width="100" height="350" as="geometry"/>
                </mxCell>
                <mxCell id="5xqcOFgxY0aVDQKXTTnq-3" value="Connector" style="shape=agent;offsetSize=8;strokeWidth=2;" parent="1" vertex="1">
                    <mxGeometry x="420" y="190" width="100" height="40" as="geometry"/>
                </mxCell>
                <mxCell id="5xqcOFgxY0aVDQKXTTnq-4" value="Connector" style="shape=agent;offsetSize=8;strokeWidth=2;" parent="1" vertex="1">
                    <mxGeometry x="420" y="250" width="100" height="40" as="geometry"/>
                </mxCell>
                <mxCell id="5xqcOFgxY0aVDQKXTTnq-5" value="Connector" style="shape=agent;offsetSize=8;strokeWidth=2;" parent="1" vertex="1">
                    <mxGeometry x="420" y="310" width="100" height="40" as="geometry"/>
                </mxCell>
                <mxCell id="5xqcOFgxY0aVDQKXTTnq-6" value="Connector" style="shape=agent;offsetSize=8;strokeWidth=2;" parent="1" vertex="1">
                    <mxGeometry x="420" y="440" width="100" height="20" as="geometry"/>
                </mxCell>
                <mxCell id="5xqcOFgxY0aVDQKXTTnq-7" value="" style="shape=dot3;vertical=true;connectable=0;" parent="1" vertex="1">
                    <mxGeometry x="463" y="370" width="15" height="55" as="geometry"/>
                </mxCell>
                <mxCell id="5xqcOFgxY0aVDQKXTTnq-8" value="" style="shape=useedge;endArrow=none;edgeStyle=none;useSignPosition=up;useSignDirection=none;exitX=1;exitY=0.5;exitDx=0;exitDy=0;entryX=-0.007;entryY=0.112;entryDx=0;entryDy=0;entryPerimeter=0;dx=100;dy=0;" parent="1" source="5xqcOFgxY0aVDQKXTTnq-3" target="5xqcOFgxY0aVDQKXTTnq-2" edge="1">
                    <mxGeometry width="160" relative="1" as="geometry">
                        <mxPoint x="570" y="210" as="sourcePoint"/>
                        <mxPoint x="730" y="210" as="targetPoint"/>
                    </mxGeometry>
                </mxCell>
                <mxCell id="5xqcOFgxY0aVDQKXTTnq-9" value="" style="shape=useedge;endArrow=none;edgeStyle=none;useSignPosition=up;useSignDirection=none;exitX=1;exitY=0.5;exitDx=0;exitDy=0;entryX=-0.019;entryY=0.279;entryDx=0;entryDy=0;entryPerimeter=0;dx=100;dy=0;" parent="1" source="5xqcOFgxY0aVDQKXTTnq-4" target="5xqcOFgxY0aVDQKXTTnq-2" edge="1">
                    <mxGeometry width="160" relative="1" as="geometry">
                        <mxPoint x="620" y="290" as="sourcePoint"/>
                        <mxPoint x="780" y="290" as="targetPoint"/>
                    </mxGeometry>
                </mxCell>
                <mxCell id="5xqcOFgxY0aVDQKXTTnq-10" value="" style="shape=useedge;endArrow=none;edgeStyle=none;useSignPosition=up;useSignDirection=none;exitX=1;exitY=0.5;exitDx=0;exitDy=0;entryX=-0.019;entryY=0.45;entryDx=0;entryDy=0;entryPerimeter=0;dx=100;dy=0;" parent="1" source="5xqcOFgxY0aVDQKXTTnq-5" target="5xqcOFgxY0aVDQKXTTnq-2" edge="1">
                    <mxGeometry width="160" relative="1" as="geometry">
                        <mxPoint x="620" y="350" as="sourcePoint"/>
                        <mxPoint x="780" y="350" as="targetPoint"/>
                    </mxGeometry>
                </mxCell>
                <mxCell id="5xqcOFgxY0aVDQKXTTnq-11" value="" style="shape=useedge;endArrow=none;edgeStyle=none;useSignPosition=up;useSignDirection=none;exitX=1;exitY=0.5;exitDx=0;exitDy=0;entryX=-0.012;entryY=0.803;entryDx=0;entryDy=0;entryPerimeter=0;dx=100;dy=0;" parent="1" source="5xqcOFgxY0aVDQKXTTnq-6" target="5xqcOFgxY0aVDQKXTTnq-2" edge="1">
                    <mxGeometry width="160" relative="1" as="geometry">
                        <mxPoint x="570" y="450" as="sourcePoint"/>
                        <mxPoint x="730" y="450" as="targetPoint"/>
                    </mxGeometry>
                </mxCell>
                <mxCell id="5xqcOFgxY0aVDQKXTTnq-12" value="Connector&#10;Admin&#10;Tool" style="shape=agent;offsetSize=8;strokeWidth=2;" parent="1" vertex="1">
                    <mxGeometry x="210" y="190" width="110" height="270" as="geometry"/>
                </mxCell>
                <mxCell id="5xqcOFgxY0aVDQKXTTnq-13" value="" style="shape=useedge;endArrow=none;edgeStyle=none;useSignPosition=up;useSignDirection=none;exitX=1.009;exitY=0.069;exitDx=0;exitDy=0;exitPerimeter=0;entryX=0;entryY=0.5;entryDx=0;entryDy=0;" parent="1" source="5xqcOFgxY0aVDQKXTTnq-12" target="5xqcOFgxY0aVDQKXTTnq-3" edge="1">
                    <mxGeometry width="160" relative="1" as="geometry">
                        <mxPoint x="380" y="220" as="sourcePoint"/>
                        <mxPoint x="540" y="220" as="targetPoint"/>
                    </mxGeometry>
                </mxCell>
                <mxCell id="5xqcOFgxY0aVDQKXTTnq-14" value="PostgreSQL" style="shape=agent;offsetSize=8;strokeWidth=2;" parent="1" vertex="1">
                    <mxGeometry x="80" y="300" width="70" height="60" as="geometry"/>
                </mxCell>
                <mxCell id="5xqcOFgxY0aVDQKXTTnq-15" value="" style="shape=useedge;endArrow=none;edgeStyle=none;useSignPosition=up;useSignDirection=none;exitX=1;exitY=0.5;exitDx=0;exitDy=0;entryX=0;entryY=0.5;entryDx=0;entryDy=0;" parent="1" source="5xqcOFgxY0aVDQKXTTnq-14" target="5xqcOFgxY0aVDQKXTTnq-12" edge="1">
                    <mxGeometry width="160" relative="1" as="geometry">
                        <mxPoint x="160" y="330" as="sourcePoint"/>
                        <mxPoint x="320" y="330" as="targetPoint"/>
                    </mxGeometry>
                </mxCell>
                <mxCell id="5xqcOFgxY0aVDQKXTTnq-16" value="" style="shape=useedge;endArrow=none;edgeStyle=none;useSignPosition=up;useSignDirection=none;exitX=1.003;exitY=0.3;exitDx=0;exitDy=0;exitPerimeter=0;entryX=0;entryY=0.5;entryDx=0;entryDy=0;" parent="1" source="5xqcOFgxY0aVDQKXTTnq-12" target="5xqcOFgxY0aVDQKXTTnq-4" edge="1">
                    <mxGeometry width="160" relative="1" as="geometry">
                        <mxPoint x="330" y="280" as="sourcePoint"/>
                        <mxPoint x="490" y="280" as="targetPoint"/>
                    </mxGeometry>
                </mxCell>
                <mxCell id="5xqcOFgxY0aVDQKXTTnq-17" value="" style="shape=useedge;endArrow=none;edgeStyle=none;useSignPosition=up;useSignDirection=none;exitX=1.003;exitY=0.529;exitDx=0;exitDy=0;exitPerimeter=0;entryX=0;entryY=0.5;entryDx=0;entryDy=0;" parent="1" source="5xqcOFgxY0aVDQKXTTnq-12" target="5xqcOFgxY0aVDQKXTTnq-5" edge="1">
                    <mxGeometry width="160" relative="1" as="geometry">
                        <mxPoint x="340" y="340" as="sourcePoint"/>
                        <mxPoint x="500" y="340" as="targetPoint"/>
                    </mxGeometry>
                </mxCell>
                <mxCell id="5xqcOFgxY0aVDQKXTTnq-18" value="" style="shape=useedge;endArrow=none;edgeStyle=none;useSignPosition=up;useSignDirection=none;exitX=1.009;exitY=0.961;exitDx=0;exitDy=0;exitPerimeter=0;entryX=0;entryY=0.5;entryDx=0;entryDy=0;" parent="1" source="5xqcOFgxY0aVDQKXTTnq-12" target="5xqcOFgxY0aVDQKXTTnq-6" edge="1">
                    <mxGeometry width="160" relative="1" as="geometry">
                        <mxPoint x="340" y="450" as="sourcePoint"/>
                        <mxPoint x="500" y="450" as="targetPoint"/>
                    </mxGeometry>
                </mxCell>
                <mxCell id="5xqcOFgxY0aVDQKXTTnq-19" value="SOAP" style="text;html=1;strokeColor=none;fillColor=none;align=center;verticalAlign=middle;whiteSpace=wrap;rounded=0;" parent="1" vertex="1">
                    <mxGeometry x="340" y="160" width="60" height="30" as="geometry"/>
                </mxCell>
                <mxCell id="5xqcOFgxY0aVDQKXTTnq-20" value="Administrator" style="shape=actor;horizontalLabelPosition=right;align=left;labelPosition=right;strokeWidth=2;" parent="1" vertex="1">
                    <mxGeometry x="247.5" y="570" width="35" height="50" as="geometry"/>
                </mxCell>
                <mxCell id="5xqcOFgxY0aVDQKXTTnq-21" value="" style="shape=useedge;vertical=true;edgeStyle=none;endArrow=none;useSignPosition=left;useSignDirection=none;entryX=0.5;entryY=1;entryDx=0;entryDy=0;exitX=0.5;exitY=0;exitDx=0;exitDy=0;dx=0;dy=80;" parent="1" source="5xqcOFgxY0aVDQKXTTnq-20" target="5xqcOFgxY0aVDQKXTTnq-12" edge="1">
                    <mxGeometry height="160" relative="1" as="geometry">
                        <mxPoint x="200" y="710" as="sourcePoint"/>
                        <mxPoint x="200" y="550" as="targetPoint"/>
                    </mxGeometry>
                </mxCell>
                <mxCell id="5xqcOFgxY0aVDQKXTTnq-22" value="" style="shape=agent;offsetSize=8;strokeWidth=2;" parent="1" vertex="1">
                    <mxGeometry x="220" y="370" width="90" height="60" as="geometry"/>
                </mxCell>
            </root>
        </mxGraphModel>
    </diagram>
    <diagram id="WJoYJa_mneZ7pbeJPqfU" name="Seite-1">
        <mxGraphModel dx="1024" dy="518" grid="1" gridSize="10" guides="1" tooltips="1" connect="1" arrows="1" fold="1" page="1" pageScale="1" pageWidth="827" pageHeight="1169" math="0" shadow="0">
            <root>
                <mxCell id="0"/>
                <mxCell id="1" parent="0"/>
                <mxCell id="2" value="Wildfly Application" style="shape=agent;offsetSize=8;strokeWidth=2;verticalAlign=top;" parent="1" vertex="1">
                    <mxGeometry x="220" y="240" width="300" height="210" as="geometry"/>
                </mxCell>
                <mxCell id="0.1" value="Best viewed with the &lt;a href=&quot;https://github.com/ariel-bentu/tam-drawio&quot;&gt;TAM plugin&lt;/a&gt;" style="text;html=1;shape=tamPluginMissing;" parent="1" vertex="1" connectable="0">
                    <mxGeometry x="257.5" y="590" width="200" height="25" as="geometry"/>
                </mxCell>
                <mxCell id="3" value="UI5 Frontend" style="shape=agent;offsetSize=8;strokeWidth=2;" parent="1" vertex="1">
                    <mxGeometry x="397" y="355" width="100" height="80" as="geometry"/>
                </mxCell>
                <mxCell id="4" value="SOAP Interfaces" style="shape=agent;offsetSize=8;strokeWidth=2;" parent="1" vertex="1">
                    <mxGeometry x="241" y="275" width="100" height="160" as="geometry"/>
                </mxCell>
                <mxCell id="5" value="Datenbank" style="shape=agent;offsetSize=8;strokeWidth=2;verticalAlign=top;" parent="1" vertex="1">
                    <mxGeometry x="220" y="90" width="300" height="90" as="geometry"/>
                </mxCell>
                <mxCell id="6" value="Connectoren" style="rounded=1;whiteSpace=wrap;html=1;arcSize=60;strokeWidth=2;verticalAlign=top;" parent="1" vertex="1">
                    <mxGeometry x="243.13" y="120" width="253.75" height="50" as="geometry"/>
                </mxCell>
                <mxCell id="7" value="Aufrufkontext" style="rounded=1;whiteSpace=wrap;html=1;arcSize=60;strokeWidth=2;" parent="1" vertex="1">
                    <mxGeometry x="256.88" y="140" width="110" height="20" as="geometry"/>
                </mxCell>
                <mxCell id="8" value="Nutzerdaten" style="rounded=1;whiteSpace=wrap;html=1;arcSize=60;strokeWidth=2;" parent="1" vertex="1">
                    <mxGeometry x="371.88" y="140" width="110" height="20" as="geometry"/>
                </mxCell>
                <mxCell id="9" value="Connector 1" style="shape=agent;offsetSize=8;strokeWidth=2;" parent="1" vertex="1">
                    <mxGeometry x="40" y="270" width="100" height="30" as="geometry"/>
                </mxCell>
                <mxCell id="10" value="Connector 2" style="shape=agent;offsetSize=8;strokeWidth=2;" parent="1" vertex="1">
                    <mxGeometry x="40" y="315" width="100" height="25" as="geometry"/>
                </mxCell>
                <mxCell id="11" value="" style="shape=dot3;vertical=true;connectable=0;" parent="1" vertex="1">
                    <mxGeometry x="83" y="345" width="15" height="55" as="geometry"/>
                </mxCell>
                <mxCell id="12" value="Connector 3" style="shape=agent;offsetSize=8;strokeWidth=2;" parent="1" vertex="1">
                    <mxGeometry x="40.5" y="400" width="100" height="30" as="geometry"/>
                </mxCell>
                <mxCell id="13" value="" style="shape=useedge;vertical=true;edgeStyle=none;endArrow=none;useSignPosition=left;useSignDirection=none;entryX=0.5;entryY=1;entryDx=0;entryDy=0;exitX=0.5;exitY=0;exitDx=0;exitDy=0;" parent="1" source="2" target="5" edge="1">
                    <mxGeometry height="160" relative="1" as="geometry">
                        <mxPoint x="340" y="360" as="sourcePoint"/>
                        <mxPoint x="340" y="200" as="targetPoint"/>
                    </mxGeometry>
                </mxCell>
                <mxCell id="14" value="" style="shape=useedge;endArrow=none;edgeStyle=none;useSignPosition=up;useSignDirection=none;exitX=1;exitY=0.5;exitDx=0;exitDy=0;entryX=-0.02;entryY=0.067;entryDx=0;entryDy=0;entryPerimeter=0;" parent="1" source="9" target="4" edge="1">
                    <mxGeometry width="160" relative="1" as="geometry">
                        <mxPoint x="140" y="285" as="sourcePoint"/>
                        <mxPoint x="300" y="285" as="targetPoint"/>
                    </mxGeometry>
                </mxCell>
                <mxCell id="16" value="" style="shape=useedge;endArrow=none;edgeStyle=none;useSignPosition=up;useSignDirection=none;exitX=1;exitY=0.5;exitDx=0;exitDy=0;entryX=0.001;entryY=0.334;entryDx=0;entryDy=0;entryPerimeter=0;" parent="1" source="10" target="4" edge="1">
                    <mxGeometry width="160" relative="1" as="geometry">
                        <mxPoint x="150" y="325" as="sourcePoint"/>
                        <mxPoint x="310" y="325" as="targetPoint"/>
                    </mxGeometry>
                </mxCell>
                <mxCell id="17" value="" style="shape=useedge;endArrow=none;edgeStyle=none;useSignPosition=up;useSignDirection=none;exitX=1;exitY=0.5;exitDx=0;exitDy=0;entryX=-0.006;entryY=0.894;entryDx=0;entryDy=0;entryPerimeter=0;" parent="1" source="12" target="4" edge="1">
                    <mxGeometry width="160" relative="1" as="geometry">
                        <mxPoint x="170" y="405" as="sourcePoint"/>
                        <mxPoint x="330" y="405" as="targetPoint"/>
                    </mxGeometry>
                </mxCell>
                <mxCell id="19" value="" style="shape=actor;horizontalLabelPosition=right;align=left;labelPosition=right;strokeWidth=2;" parent="1" vertex="1">
                    <mxGeometry x="423" y="510" width="35" height="50" as="geometry"/>
                </mxCell>
                <mxCell id="20" value="" style="shape=useedge;vertical=true;edgeStyle=none;endArrow=none;useSignPosition=left;useSignDirection=none;entryX=0.5;entryY=1;entryDx=0;entryDy=0;exitX=0.5;exitY=0;exitDx=0;exitDy=0;" parent="1" source="19" target="3" edge="1">
                    <mxGeometry height="160" relative="1" as="geometry">
                        <mxPoint x="410" y="630" as="sourcePoint"/>
                        <mxPoint x="410" y="470" as="targetPoint"/>
                    </mxGeometry>
                </mxCell>
                <mxCell id="27" style="edgeStyle=none;html=1;entryX=0;entryY=0.5;entryDx=0;entryDy=0;" parent="1" source="21" target="23" edge="1">
                    <mxGeometry relative="1" as="geometry"/>
                </mxCell>
                <mxCell id="21" value="Open Metrics" style="shape=agent;offsetSize=8;strokeWidth=2;" parent="1" vertex="1">
                    <mxGeometry x="397" y="277.5" width="100" height="60" as="geometry"/>
                </mxCell>
                <mxCell id="29" style="edgeStyle=none;html=1;entryX=0.5;entryY=0;entryDx=0;entryDy=0;" parent="1" source="23" target="28" edge="1">
                    <mxGeometry relative="1" as="geometry"/>
                </mxCell>
                <mxCell id="23" value="Probes" style="rounded=1;whiteSpace=wrap;html=1;arcSize=26;strokeWidth=2;verticalAlign=top;" parent="1" vertex="1">
                    <mxGeometry x="545" y="245" width="170" height="125" as="geometry"/>
                </mxCell>
                <mxCell id="24" value="Connector Antwortzeit" style="rounded=1;whiteSpace=wrap;html=1;arcSize=60;strokeWidth=2;" parent="1" vertex="1">
                    <mxGeometry x="560" y="270" width="140" height="20" as="geometry"/>
                </mxCell>
                <mxCell id="25" value="SMC-B Status" style="rounded=1;whiteSpace=wrap;html=1;arcSize=60;strokeWidth=2;" parent="1" vertex="1">
                    <mxGeometry x="560" y="300" width="140" height="20" as="geometry"/>
                </mxCell>
                <mxCell id="26" value="Anzahl Kartenterminal" style="rounded=1;whiteSpace=wrap;html=1;arcSize=60;strokeWidth=2;" parent="1" vertex="1">
                    <mxGeometry x="560" y="330" width="140" height="20" as="geometry"/>
                </mxCell>
                <mxCell id="28" value="Prometheus" style="shape=agent;offsetSize=8;strokeWidth=2;" parent="1" vertex="1">
                    <mxGeometry x="580" y="400" width="100" height="60" as="geometry"/>
                </mxCell>
                <mxCell id="30" value="Grafana" style="shape=agent;offsetSize=8;strokeWidth=2;" parent="1" vertex="1">
                    <mxGeometry x="580" y="500" width="100" height="35" as="geometry"/>
                </mxCell>
                <mxCell id="31" value="" style="shape=useedge;vertical=true;edgeStyle=none;endArrow=none;useSignPosition=left;useSignDirection=none;entryX=0.5;entryY=1;entryDx=0;entryDy=0;exitX=0.5;exitY=0;exitDx=0;exitDy=0;" parent="1" source="30" target="28" edge="1">
                    <mxGeometry height="160" relative="1" as="geometry">
                        <mxPoint x="560" y="630" as="sourcePoint"/>
                        <mxPoint x="560" y="470" as="targetPoint"/>
                    </mxGeometry>
                </mxCell>
            </root>
        </mxGraphModel>
    </diagram>
    <diagram id="pcQcGQzyTQLJBqN-FWd8" name="OpenMetrics">
        <mxGraphModel dx="1024" dy="518" grid="1" gridSize="10" guides="1" tooltips="1" connect="1" arrows="1" fold="1" page="1" pageScale="1" pageWidth="827" pageHeight="1169" math="0" shadow="0">
            <root>
                <mxCell id="0"/>
                <mxCell id="1" parent="0"/>
                <mxCell id="0.0" value="Best viewed with the &lt;a href=&quot;https://github.com/ariel-bentu/tam-drawio&quot;&gt;TAM plugin&lt;/a&gt;" style="text;html=1;shape=tamPluginMissing;" parent="1" vertex="1" connectable="0">
                    <mxGeometry x="10" y="380" width="200" height="25" as="geometry"/>
                </mxCell>
                <mxCell id="6D_YpuJgfdh5k-wZ-Zpk-2" value="OpenMetrics&#10;Enabled App e.g.&#10;Connector Admin Tool" style="shape=agent;offsetSize=8;strokeWidth=2;" parent="1" vertex="1">
                    <mxGeometry x="90" y="260" width="130" height="90" as="geometry"/>
                </mxCell>
                <mxCell id="6D_YpuJgfdh5k-wZ-Zpk-3" value="" style="shape=useedge;endArrow=none;edgeStyle=none;useSignPosition=up;useSignDirection=east;exitX=1;exitY=0.5;exitDx=0;exitDy=0;" parent="1" source="6D_YpuJgfdh5k-wZ-Zpk-2" edge="1">
                    <mxGeometry width="160" relative="1" as="geometry">
                        <mxPoint x="240" y="300" as="sourcePoint"/>
                        <mxPoint x="400" y="300" as="targetPoint"/>
                    </mxGeometry>
                </mxCell>
            </root>
        </mxGraphModel>
    </diagram>
    <diagram id="5fxysOYvcepMRxXjqvl-" name="Page-4">
        <mxGraphModel dx="955" dy="739" grid="1" gridSize="10" guides="1" tooltips="1" connect="1" arrows="1" fold="1" page="1" pageScale="1" pageWidth="827" pageHeight="1169" math="0" shadow="0">
            <root>
                <mxCell id="0"/>
                <mxCell id="1" parent="0"/>
                <mxCell id="zPhvcSm8Tsux3YJrnu93-1" value="Konnektor" style="shape=agent;offsetSize=8;strokeWidth=2;" vertex="1" parent="1">
                    <mxGeometry x="314" y="190" width="100" height="60" as="geometry"/>
                </mxCell>
                <mxCell id="0.1" value="Best viewed with the &lt;a href=&quot;https://github.com/ariel-bentu/tam-drawio&quot;&gt;TAM plugin&lt;/a&gt;" style="text;html=1;shape=tamPluginMissing;" vertex="1" connectable="0" parent="1">
                    <mxGeometry x="227.5" y="600" width="200" height="25" as="geometry"/>
                </mxCell>
                <mxCell id="zPhvcSm8Tsux3YJrnu93-2" value="" style="edgeStyle=elbowEdgeStyle;dashed=1;dashPattern=5 5;strokeWidth=2;arcSize=0;startArrow=none;endArrow=none;startSize=0;endSize=0;html=1;endFill=0;align=center;resizeHeight=0;rounded=0;" edge="1" parent="1">
                    <mxGeometry width="300" relative="1" as="geometry">
                        <mxPoint x="90" y="320" as="sourcePoint"/>
                        <mxPoint x="800" y="320" as="targetPoint"/>
                    </mxGeometry>
                </mxCell>
                <mxCell id="zPhvcSm8Tsux3YJrnu93-3" value="Arztpraxis" style="text;html=1;strokeColor=none;fillColor=none;align=center;verticalAlign=middle;whiteSpace=wrap;rounded=0;" vertex="1" parent="1">
                    <mxGeometry x="70" y="290" width="60" height="30" as="geometry"/>
                </mxCell>
                <mxCell id="zPhvcSm8Tsux3YJrnu93-4" value="" style="edgeStyle=elbowEdgeStyle;dashed=1;dashPattern=5 5;strokeWidth=2;arcSize=0;startArrow=none;endArrow=none;startSize=0;endSize=0;html=1;endFill=0;align=center;resizeHeight=0;rounded=0;" edge="1" parent="1">
                    <mxGeometry width="300" relative="1" as="geometry">
                        <mxPoint x="80" y="430" as="sourcePoint"/>
                        <mxPoint x="800" y="430" as="targetPoint"/>
                    </mxGeometry>
                </mxCell>
                <mxCell id="zPhvcSm8Tsux3YJrnu93-5" value="Internet" style="text;html=1;strokeColor=none;fillColor=none;align=center;verticalAlign=middle;whiteSpace=wrap;rounded=0;" vertex="1" parent="1">
                    <mxGeometry x="70" y="400" width="60" height="30" as="geometry"/>
                </mxCell>
                <mxCell id="zPhvcSm8Tsux3YJrnu93-6" value="Konnektor Admin Tool" style="shape=agent;offsetSize=8;strokeWidth=2;" vertex="1" parent="1">
                    <mxGeometry x="492" y="510" width="146" height="60" as="geometry"/>
                </mxCell>
                <mxCell id="zPhvcSm8Tsux3YJrnu93-7" value="Server" style="shape=agent;offsetSize=8;strokeWidth=2;verticalAlign=top;" vertex="1" parent="1">
                    <mxGeometry x="480" y="120" width="170" height="130" as="geometry"/>
                </mxCell>
                <mxCell id="zPhvcSm8Tsux3YJrnu93-8" value="RMM Client (TakeControl)" style="shape=agent;offsetSize=8;strokeWidth=2;" vertex="1" parent="1">
                    <mxGeometry x="495.5" y="190" width="145" height="20" as="geometry"/>
                </mxCell>
                <mxCell id="zPhvcSm8Tsux3YJrnu93-9" value="N-Able" style="shape=agent;offsetSize=8;strokeWidth=2;" vertex="1" parent="1">
                    <mxGeometry x="515" y="380" width="135" height="40" as="geometry"/>
                </mxCell>
                <mxCell id="zPhvcSm8Tsux3YJrnu93-10" value="Konnektor Admin Tool" style="shape=agent;offsetSize=8;strokeWidth=2;" vertex="1" parent="1">
                    <mxGeometry x="515" y="330" width="140" height="20" as="geometry"/>
                </mxCell>
                <mxCell id="zPhvcSm8Tsux3YJrnu93-12" value="Team Viewer" style="shape=agent;offsetSize=8;strokeWidth=2;" vertex="1" parent="1">
                    <mxGeometry x="500" y="155" width="130" height="25" as="geometry"/>
                </mxCell>
                <mxCell id="zPhvcSm8Tsux3YJrnu93-13" value="nssm ssh revert port" style="shape=agent;offsetSize=8;strokeWidth=2;" vertex="1" parent="1">
                    <mxGeometry x="500" y="220" width="130" height="20" as="geometry"/>
                </mxCell>
                <mxCell id="zPhvcSm8Tsux3YJrnu93-14" value="" style="shape=useedge;vertical=true;edgeStyle=none;endArrow=none;useSignPosition=left;useSignDirection=south;entryX=0.5;entryY=1;entryDx=0;entryDy=0;exitX=0.5;exitY=0;exitDx=0;exitDy=0;" edge="1" parent="1" source="zPhvcSm8Tsux3YJrnu93-10" target="zPhvcSm8Tsux3YJrnu93-13">
                    <mxGeometry height="160" relative="1" as="geometry">
                        <mxPoint x="580" y="440" as="sourcePoint"/>
                        <mxPoint x="580" y="280" as="targetPoint"/>
                    </mxGeometry>
                </mxCell>
                <mxCell id="zPhvcSm8Tsux3YJrnu93-15" value="" style="shape=useedge;vertical=true;edgeStyle=none;endArrow=none;useSignPosition=left;useSignDirection=south;entryX=0.5;entryY=1;entryDx=0;entryDy=0;exitX=0.5;exitY=0;exitDx=0;exitDy=0;" edge="1" parent="1" source="zPhvcSm8Tsux3YJrnu93-9" target="zPhvcSm8Tsux3YJrnu93-10">
                    <mxGeometry height="160" relative="1" as="geometry">
                        <mxPoint x="540" y="530" as="sourcePoint"/>
                        <mxPoint x="540" y="370" as="targetPoint"/>
                    </mxGeometry>
                </mxCell>
            </root>
        </mxGraphModel>
    </diagram>
</mxfile>